# xmcd
# 
# Track frame offsets:
#     150
#     13650
#     32206
#     44356
#     58618
#     86563
# 
# Disc length: 1304
# 
# Revision: 0
# Processed by: cddbd v1.5.2PL0 Copyright (c) Steve Scherf et al.
# Submitted via: fre:ac v1.0.31
# 
DISCID=46051606
DTITLE=Manigale - Manigale 1
DYEAR=0
DGENRE=Folk
TTITLE0=Suite de Maraichines (Trad.)
TTITLE1=Valse du paradis (S.Devineau)
TTITLE2=Le pont de Montvert (Scottisch) (N. Queuniet)
TTITLE3=Suite d'avant deux (Trad.)
TTITLE4=Scottisch Manigale (Scottisch impaire) (S. Devineau)
TTITLE5=Avant deux Pierrot (Trad.)
EXTD=
EXTT0=
EXTT1=
EXTT2=
EXTT3=
EXTT4=
EXTT5=
PLAYORDER=
